<?xml version="1.0" encoding="UTF-8"?>
<svg id="a" data-name="레이어 1" xmlns="http://www.w3.org/2000/svg" viewBox="0 0 512 512">
  <path d="M146.03,512c-7.86-1.26-15.78-2.25-23.58-3.82-38.89-7.86-68.49-29.06-89.06-62.85-15.66-25.72-23.97-54.01-28.34-83.58-3.05-20.64-4.36-41.4-3.37-62.27,.09-1.81,.26-3.61,.41-5.76,1.64,.1,3.06,.19,4.71,.29,0,11.74-.43,23.23,.08,34.68,1.62,36.44,8.34,71.77,25.36,104.45,22.88,43.92,59.27,68.01,108.54,72.89,20.12,1.99,39.87,.58,59.33-5.09,18.79-5.48,41.21-20.12,51.97-34.14-5.69-9.32-11.82-18.26-16.82-27.79-12.41-23.69-19.21-49.19-23.02-75.55-3.83-26.5-5.17-53.06-1.19-79.65,2.5-16.68,5.91-33.25,15.88-47.37,17.02-24.1,45.74-22.4,60.45,3.25,8.98,15.66,12.79,32.89,14.46,50.49,4.5,47.52-1.05,93.81-19.97,137.9-4.88,11.37-12.12,21.74-18.35,32.52-1.15,1.99-2.65,3.77-4.09,5.78,13.03,15.01,28.39,26.38,46.92,32.5,42.3,13.97,83.5,10.65,122.65-10.77,22.41-12.27,38.37-31.23,50.16-53.63,15.03-28.57,22.63-59.3,24.93-91.33,1.17-16.24,1.45-32.54,2.14-49.12,.6-.08,1.9-.25,3.26-.43,.26,.54,.61,.96,.63,1.39,2.2,49.45-3.35,97.57-26.76,142.07-20.8,39.55-53.26,64.01-97.62,71.94-6.53,1.17-13.11,2.02-19.67,3.01h-25.01c-1.44-.33-2.86-.81-4.31-.97-23.49-2.5-44.99-10.2-63.67-24.88-5.97-4.69-11.39-10.09-17.05-15.16-.16,.02-.36-.01-.47,.07-.52,.41-1.05,.82-1.5,1.3-18.46,20-41.23,32.14-67.89,37.13-5.04,.94-10.11,1.68-15.17,2.51h-25.01Zm110.26-49.33c4.15-6.26,8.17-11.74,11.58-17.58,14.47-24.78,22.39-51.77,26.66-79.98,4.39-28.98,5.78-57.96,.5-86.99-2.48-13.66-5.95-26.96-13.73-38.75-9.33-14.14-24.13-18.86-37.96-11.75-7.89,4.06-12.77,11-16.56,18.77-8.49,17.39-11.31,36.15-12.55,55.13-1.82,27.75,.93,55.2,6.9,82.34,6.22,28.27,16.51,54.71,35.15,78.81Z"/>
  <path d="M130.59,299.13C87.63,225.52,45.11,152.65,2.44,79.51c1.51-.94,2.72-1.69,4.24-2.63,41,70.26,81.85,140.25,123.28,211.25C172.06,191.94,213.77,96.64,256.07,0c42.19,96.39,83.89,191.65,126.11,288.12,41.39-70.91,82.25-140.92,123.27-211.21,1.5,.91,2.71,1.64,4.26,2.58-42.67,73.13-85.19,145.99-128.16,219.64-41.84-95.6-83.36-190.45-125.47-286.68-42.06,96.09-83.61,191.01-125.49,286.67Z"/>
</svg>